<svg width="186" height="16" viewBox="0 0 186 16" fill="none" xmlns="http://www.w3.org/2000/svg">
<path d="M0.646454 8.35355C0.451187 8.15829 0.451187 7.84171 0.646454 7.64645L3.82843 4.46447C4.0237 4.2692 4.34027 4.2692 4.53554 4.46447C4.73079 4.65973 4.73079 4.97631 4.53554 5.17157L1.70711 8L4.53554 10.8284C4.73079 11.0237 4.73079 11.3403 4.53554 11.5355C4.34027 11.7308 4.0237 11.7308 3.82843 11.5355L0.646454 8.35355ZM186 8.5H184.995V7.5H186V8.5ZM182.984 8.5H180.973V7.5H182.984V8.5ZM178.962 8.5H176.951V7.5H178.962V8.5ZM174.94 8.5H172.929V7.5H174.94V8.5ZM170.918 8.5H168.908V7.5H170.918V8.5ZM166.897 8.5H164.886V7.5H166.897V8.5ZM162.875 8.5H160.864V7.5H162.875V8.5ZM158.853 8.5H156.842V7.5H158.853V8.5ZM154.832 8.5H152.821V7.5H154.832V8.5ZM150.81 8.5H148.799V7.5H150.81V8.5ZM146.788 8.5H144.777V7.5H146.788V8.5ZM142.766 8.5H140.755V7.5H142.766V8.5ZM138.745 8.5H136.734V7.5H138.745V8.5ZM134.723 8.5H132.712V7.5H134.723V8.5ZM130.701 8.5H128.69V7.5H130.701V8.5ZM126.679 8.5H124.668V7.5H126.679V8.5ZM122.658 8.5H120.647V7.5H122.658V8.5ZM118.636 8.5H116.625V7.5H118.636V8.5ZM114.614 8.5H112.603V7.5H114.614V8.5ZM110.592 8.5H108.582V7.5H110.592V8.5ZM106.571 8.5H104.56V7.5H106.571V8.5ZM102.549 8.5H100.538V7.5H102.549V8.5ZM98.5272 8.5H96.5163V7.5H98.5272V8.5ZM94.5054 8.5H92.4946V7.5H94.5054V8.5ZM90.4837 8.5H88.4728V7.5H90.4837V8.5ZM86.4619 8.5H84.4511V7.5H86.4619V8.5ZM82.4402 8.5H80.4293V7.5H82.4402V8.5ZM78.4185 8.5H76.4076V7.5H78.4185V8.5ZM74.3967 8.5H72.3858V7.5H74.3967V8.5ZM70.375 8.5H68.3641V7.5H70.375V8.5ZM66.3532 8.5H64.3423V7.5H66.3532V8.5ZM62.3315 8.5H60.3206V7.5H62.3315V8.5ZM58.3097 8.5H56.2989V7.5H58.3097V8.5ZM54.288 8.5H52.2771V7.5H54.288V8.5ZM50.2663 8.5H48.2554V7.5H50.2663V8.5ZM46.2445 8.5H44.2337V7.5H46.2445V8.5ZM42.2228 8.5H40.2119V7.5H42.2228V8.5ZM38.2011 8.5H36.1902V7.5H38.2011V8.5ZM34.1794 8.5H32.1685V7.5H34.1794V8.5ZM30.1576 8.5H28.1468V7.5H30.1576V8.5ZM26.1359 8.5H24.125V7.5H26.1359V8.5ZM22.1142 8.5H20.1033V7.5H22.1142V8.5ZM18.0924 8.5H16.0816V7.5H18.0924V8.5ZM14.0707 8.5H12.0598V7.5H14.0707V8.5ZM10.049 8.5H8.03812V7.5H10.049V8.5ZM6.02725 8.5H4.01639V7.5H6.02725V8.5ZM2.00552 8.5H1V7.5H2.00552V8.5ZM0.292892 8.70711C-0.0976257 8.31658 -0.0976257 7.68342 0.292892 7.29289L6.65686 0.928932C7.04738 0.538408 7.68054 0.538408 8.07108 0.928932C8.46159 1.31946 8.46159 1.95262 8.07108 2.34315L2.41422 8L8.07108 13.6569C8.46159 14.0474 8.46159 14.6805 8.07108 15.0711C7.68054 15.4616 7.04738 15.4616 6.65686 15.0711L0.292892 8.70711ZM186 9H184.995V7H186V9ZM182.984 9H180.973V7H182.984V9ZM178.962 9H176.951V7H178.962V9ZM174.94 9H172.929V7H174.94V9ZM170.918 9H168.908V7H170.918V9ZM166.897 9H164.886V7H166.897V9ZM162.875 9H160.864V7H162.875V9ZM158.853 9H156.842V7H158.853V9ZM154.832 9H152.821V7H154.832V9ZM150.81 9H148.799V7H150.81V9ZM146.788 9H144.777V7H146.788V9ZM142.766 9H140.755V7H142.766V9ZM138.745 9H136.734V7H138.745V9ZM134.723 9H132.712V7H134.723V9ZM130.701 9H128.69V7H130.701V9ZM126.679 9H124.668V7H126.679V9ZM122.658 9H120.647V7H122.658V9ZM118.636 9H116.625V7H118.636V9ZM114.614 9H112.603V7H114.614V9ZM110.592 9H108.582V7H110.592V9ZM106.571 9H104.56V7H106.571V9ZM102.549 9H100.538V7H102.549V9ZM98.5272 9H96.5163V7H98.5272V9ZM94.5054 9H92.4946V7H94.5054V9ZM90.4837 9H88.4728V7H90.4837V9ZM86.4619 9H84.4511V7H86.4619V9ZM82.4402 9H80.4293V7H82.4402V9ZM78.4185 9H76.4076V7H78.4185V9ZM74.3967 9H72.3858V7H74.3967V9ZM70.375 9H68.3641V7H70.375V9ZM66.3532 9H64.3423V7H66.3532V9ZM62.3315 9H60.3206V7H62.3315V9ZM58.3097 9H56.2989V7H58.3097V9ZM54.288 9H52.2771V7H54.288V9ZM50.2663 9H48.2554V7H50.2663V9ZM46.2445 9H44.2337V7H46.2445V9ZM42.2228 9H40.2119V7H42.2228V9ZM38.2011 9H36.1902V7H38.2011V9ZM34.1794 9H32.1685V7H34.1794V9ZM30.1576 9H28.1468V7H30.1576V9ZM26.1359 9H24.125V7H26.1359V9ZM22.1142 9H20.1033V7H22.1142V9ZM18.0924 9H16.0816V7H18.0924V9ZM14.0707 9H12.0598V7H14.0707V9ZM10.049 9H8.03812V7H10.049V9ZM6.02725 9H4.01639V7H6.02725V9ZM2.00552 9H1V7H2.00552V9Z" fill="#FA3134"/>
</svg>
