<svg width="186" height="16" viewBox="0 0 186 16" fill="none" xmlns="http://www.w3.org/2000/svg">
<path d="M185.354 8.35355C185.549 8.15829 185.549 7.84171 185.354 7.64645L182.172 4.46447C181.976 4.2692 181.66 4.2692 181.464 4.46447C181.269 4.65973 181.269 4.97631 181.464 5.17157L184.293 8L181.464 10.8284C181.269 11.0237 181.269 11.3403 181.464 11.5355C181.66 11.7308 181.976 11.7308 182.172 11.5355L185.354 8.35355ZM0 8.5H1.00543V7.5H0V8.5ZM3.0163 8.5H5.02717V7.5H3.0163V8.5ZM7.03804 8.5H9.04891V7.5H7.03804V8.5ZM11.0598 8.5H13.0707V7.5H11.0598V8.5ZM15.0815 8.5H17.0924V7.5H15.0815V8.5ZM19.1033 8.5H21.1141V7.5H19.1033V8.5ZM23.125 8.5H25.1359V7.5H23.125V8.5ZM27.1467 8.5H29.1576V7.5H27.1467V8.5ZM31.1685 8.5H33.1794V7.5H31.1685V8.5ZM35.1902 8.5H37.2011V7.5H35.1902V8.5ZM39.212 8.5H41.2228V7.5H39.212V8.5ZM43.2337 8.5H45.2446V7.5H43.2337V8.5ZM47.2554 8.5H49.2663V7.5H47.2554V8.5ZM51.2772 8.5H53.288V7.5H51.2772V8.5ZM55.2989 8.5H57.3098V7.5H55.2989V8.5ZM59.3206 8.5H61.3315V7.5H59.3206V8.5ZM63.3424 8.5H65.3532V7.5H63.3424V8.5ZM67.3641 8.5H69.375V7.5H67.3641V8.5ZM71.3859 8.5H73.3967V7.5H71.3859V8.5ZM75.4076 8.5H77.4185V7.5H75.4076V8.5ZM79.4293 8.5H81.4402V7.5H79.4293V8.5ZM83.4511 8.5H85.462V7.5H83.4511V8.5ZM87.4728 8.5H89.4837V7.5H87.4728V8.5ZM91.4946 8.5H93.5054V7.5H91.4946V8.5ZM95.5163 8.5H97.5272V7.5H95.5163V8.5ZM99.5381 8.5H101.549V7.5H99.5381V8.5ZM103.56 8.5H105.571V7.5H103.56V8.5ZM107.582 8.5H109.592V7.5H107.582V8.5ZM111.603 8.5H113.614V7.5H111.603V8.5ZM115.625 8.5H117.636V7.5H115.625V8.5ZM119.647 8.5H121.658V7.5H119.647V8.5ZM123.669 8.5H125.679V7.5H123.669V8.5ZM127.69 8.5H129.701V7.5H127.69V8.5ZM131.712 8.5H133.723V7.5H131.712V8.5ZM135.734 8.5H137.745V7.5H135.734V8.5ZM139.755 8.5H141.766V7.5H139.755V8.5ZM143.777 8.5H145.788V7.5H143.777V8.5ZM147.799 8.5H149.81V7.5H147.799V8.5ZM151.821 8.5H153.832V7.5H151.821V8.5ZM155.842 8.5H157.853V7.5H155.842V8.5ZM159.864 8.5H161.875V7.5H159.864V8.5ZM163.886 8.5H165.897V7.5H163.886V8.5ZM167.908 8.5H169.918V7.5H167.908V8.5ZM171.929 8.5H173.94V7.5H171.929V8.5ZM175.951 8.5H177.962V7.5H175.951V8.5ZM179.973 8.5H181.984V7.5H179.973V8.5ZM183.994 8.5H185V7.5H183.994V8.5ZM185.707 8.70711C186.098 8.31658 186.098 7.68342 185.707 7.29289L179.343 0.928932C178.953 0.538408 178.319 0.538408 177.929 0.928932C177.538 1.31946 177.538 1.95262 177.929 2.34315L183.586 8L177.929 13.6569C177.538 14.0474 177.538 14.6805 177.929 15.0711C178.319 15.4616 178.953 15.4616 179.343 15.0711L185.707 8.70711ZM0 9H1.00543V7H0V9ZM3.0163 9H5.02717V7H3.0163V9ZM7.03804 9H9.04891V7H7.03804V9ZM11.0598 9H13.0707V7H11.0598V9ZM15.0815 9H17.0924V7H15.0815V9ZM19.1033 9H21.1141V7H19.1033V9ZM23.125 9H25.1359V7H23.125V9ZM27.1467 9H29.1576V7H27.1467V9ZM31.1685 9H33.1794V7H31.1685V9ZM35.1902 9H37.2011V7H35.1902V9ZM39.212 9H41.2228V7H39.212V9ZM43.2337 9H45.2446V7H43.2337V9ZM47.2554 9H49.2663V7H47.2554V9ZM51.2772 9H53.288V7H51.2772V9ZM55.2989 9H57.3098V7H55.2989V9ZM59.3206 9H61.3315V7H59.3206V9ZM63.3424 9H65.3532V7H63.3424V9ZM67.3641 9H69.375V7H67.3641V9ZM71.3859 9H73.3967V7H71.3859V9ZM75.4076 9H77.4185V7H75.4076V9ZM79.4293 9H81.4402V7H79.4293V9ZM83.4511 9H85.462V7H83.4511V9ZM87.4728 9H89.4837V7H87.4728V9ZM91.4946 9H93.5054V7H91.4946V9ZM95.5163 9H97.5272V7H95.5163V9ZM99.5381 9H101.549V7H99.5381V9ZM103.56 9H105.571V7H103.56V9ZM107.582 9H109.592V7H107.582V9ZM111.603 9H113.614V7H111.603V9ZM115.625 9H117.636V7H115.625V9ZM119.647 9H121.658V7H119.647V9ZM123.669 9H125.679V7H123.669V9ZM127.69 9H129.701V7H127.69V9ZM131.712 9H133.723V7H131.712V9ZM135.734 9H137.745V7H135.734V9ZM139.755 9H141.766V7H139.755V9ZM143.777 9H145.788V7H143.777V9ZM147.799 9H149.81V7H147.799V9ZM151.821 9H153.832V7H151.821V9ZM155.842 9H157.853V7H155.842V9ZM159.864 9H161.875V7H159.864V9ZM163.886 9H165.897V7H163.886V9ZM167.908 9H169.918V7H167.908V9ZM171.929 9H173.94V7H171.929V9ZM175.951 9H177.962V7H175.951V9ZM179.973 9H181.984V7H179.973V9ZM183.994 9H185V7H183.994V9Z" fill="#FA3134"/>
</svg>
