<svg width="42" height="42" viewBox="0 0 42 42" fill="none" xmlns="http://www.w3.org/2000/svg">
<path d="M24.386 41.7267C24.2111 41.7552 24.0355 41.7815 23.8593 41.8055C24.0355 41.7815 24.2111 41.7552 24.386 41.7267Z" fill="#082A58"/>
<path d="M24.8061 41.6549C24.7225 41.6703 24.6389 41.6844 24.5552 41.6988C24.6389 41.6844 24.7225 41.6703 24.8061 41.6549Z" fill="#082A58"/>
<path d="M23.3901 41.8638C23.1854 41.8869 22.9793 41.9074 22.7726 41.9247C22.9793 41.9074 23.1854 41.8869 23.3901 41.8638Z" fill="#082A58"/>
<path d="M23.7936 41.8145C23.6952 41.8276 23.5962 41.8398 23.4975 41.8513C23.5962 41.8398 23.6952 41.8276 23.7936 41.8145Z" fill="#082A58"/>
<path d="M25.3777 41.5414C25.304 41.5571 25.23 41.5728 25.156 41.5879C25.23 41.5728 25.304 41.5571 25.3777 41.5414Z" fill="#082A58"/>
<path d="M26.7967 41.189C26.7371 41.2059 26.6775 41.222 26.6179 41.2386C26.6775 41.222 26.7371 41.2059 26.7967 41.189Z" fill="#082A58"/>
<path d="M26.3676 41.3063C26.3029 41.3233 26.2378 41.3406 26.1728 41.3569C26.2378 41.3406 26.3029 41.3236 26.3676 41.3063Z" fill="#082A58"/>
<path d="M25.8062 41.4466C25.7376 41.4626 25.6684 41.4777 25.5992 41.4931C25.6684 41.4777 25.7376 41.4626 25.8062 41.4466Z" fill="#082A58"/>
<path d="M22.7659 41.9254C22.6554 41.9346 22.5448 41.943 22.434 41.9503C22.5448 41.943 22.6554 41.9346 22.7659 41.9254Z" fill="#082A58"/>
<path d="M42 21C42 9.40379 32.5962 0 21 0C9.40379 0 0 9.40379 0 21C0 32.5962 9.40379 42 21 42C21.1234 42 21.2461 41.9974 21.3691 41.9952V25.6476H16.8574V20.3896H21.3691V16.5203C21.3691 12.033 24.1085 9.59061 28.1114 9.59061C30.0282 9.59061 31.6759 9.73352 32.1562 9.79729V14.4872H29.396C27.2184 14.4872 26.7967 15.5222 26.7967 17.0407V20.3896H32.0037L31.325 25.6476H26.7967V41.1887C35.5743 38.6723 42 30.5855 42 21Z" fill="#082A58"/>
<path d="M22.3875 41.9532C22.1689 41.9673 21.9494 41.9785 21.7293 41.9859C21.9494 41.9785 22.1689 41.9673 22.3875 41.9532Z" fill="#082A58"/>
<path d="M21.7181 41.9865C21.6021 41.9904 21.4858 41.9933 21.3694 41.9952C21.4858 41.9933 21.6021 41.9904 21.7181 41.9865Z" fill="#082A58"/>
</svg>
