<svg width="42" height="42" viewBox="0 0 42 42" fill="none" xmlns="http://www.w3.org/2000/svg">
<path d="M16.9805 21C16.9805 23.22 18.78 25.0195 21 25.0195C23.22 25.0195 25.0195 23.22 25.0195 21C25.0195 18.78 23.22 16.9805 21 16.9805C18.78 16.9805 16.9805 18.78 16.9805 21Z" fill="#082A58"/>
<path d="M11.5997 13.8883C11.793 13.3647 12.1012 12.8907 12.5018 12.5017C12.8908 12.1012 13.3644 11.7929 13.8883 11.5997C14.3132 11.4347 14.9515 11.2383 16.1272 11.1848C17.399 11.1268 17.7803 11.1143 21 11.1143C24.22 11.1143 24.6014 11.1264 25.8728 11.1844C27.0485 11.2383 27.6871 11.4347 28.1117 11.5997C28.6356 11.7929 29.1096 12.1012 29.4982 12.5017C29.8988 12.8907 30.207 13.3643 30.4006 13.8883C30.5656 14.3132 30.762 14.9518 30.8156 16.1275C30.8736 17.3989 30.886 17.7803 30.886 21.0003C30.886 24.22 30.8736 24.6013 30.8156 25.8732C30.762 27.0488 30.5656 27.6871 30.4006 28.112C30.207 28.6359 29.8991 29.1095 29.4986 29.4986C29.1096 29.8991 28.636 30.2074 28.112 30.4006C27.6871 30.5659 27.0485 30.7623 25.8728 30.8159C24.6014 30.8739 24.2204 30.886 21.0003 30.886C17.78 30.886 17.3986 30.8739 16.1275 30.8159C14.9518 30.7623 14.3132 30.5659 13.8883 30.4006C12.8366 29.9949 12.0054 29.1637 11.5997 28.112C11.4347 27.6871 11.2383 27.0488 11.1844 25.8732C11.1264 24.6013 11.1143 24.22 11.1143 21.0003C11.1143 17.7803 11.1264 17.3989 11.1844 16.1275C11.238 14.9518 11.4344 14.3132 11.5997 13.8883ZM21 27.1921C24.42 27.1921 27.1924 24.42 27.1924 21C27.1924 17.58 24.42 14.8079 21 14.8079C17.5803 14.8079 14.8079 17.58 14.8079 21C14.8079 24.42 17.5803 27.1921 21 27.1921ZM14.5631 16.0102C15.3623 16.0102 16.0102 15.3623 16.0102 14.5631C16.0102 13.7639 15.3623 13.116 14.5631 13.116C13.7639 13.116 13.116 13.7639 13.116 14.5631C13.1163 15.3623 13.7639 16.0102 14.5631 16.0102Z" fill="#082A58"/>
<path d="M21 0C32.5962 0 42 9.40379 42 21C42 32.5962 32.5962 42 21 42C9.40379 42 0 32.5962 0 21C0 9.40379 9.40379 0 21 0ZM9.01414 25.9715C9.07246 27.2552 9.27658 28.1316 9.57458 28.8987C10.201 30.5185 11.4815 31.799 13.1013 32.4254C13.8681 32.7234 14.7448 32.9272 16.0281 32.9859C17.314 33.0445 17.7248 33.0586 20.9997 33.0586C24.2748 33.0586 24.6853 33.0445 25.9715 32.9859C27.2549 32.9272 28.1316 32.7234 28.8984 32.4254C29.7033 32.1226 30.432 31.648 31.0344 31.0344C31.6477 30.4323 32.1223 29.7033 32.4251 28.8987C32.7231 28.1319 32.9272 27.2552 32.9855 25.9719C33.0448 24.6856 33.0586 24.2748 33.0586 21C33.0586 17.7252 33.0448 17.3144 32.9859 16.0285C32.9275 14.7448 32.7237 13.8684 32.4257 13.1013C32.1229 12.2967 31.648 11.5677 31.0344 10.9656C30.4323 10.352 29.7033 9.8774 28.8987 9.57458C28.1316 9.27658 27.2552 9.07278 25.9715 9.01414C24.6856 8.95551 24.2748 8.94141 21 8.94141C17.7252 8.94141 17.3144 8.95551 16.0285 9.01447C14.7448 9.07278 13.8684 9.27658 13.1013 9.57426C12.2967 9.87708 11.5677 10.352 10.9653 10.9656C10.352 11.568 9.87708 12.2967 9.57458 13.1013C9.27626 13.8684 9.07246 14.7448 9.01382 16.0285C8.95518 17.3144 8.94141 17.7252 8.94141 21C8.94141 24.2748 8.95518 24.6856 9.01414 25.9715Z" fill="#082A58"/>
</svg>
