<svg width="358" height="44" viewBox="0 0 358 44" fill="none" xmlns="http://www.w3.org/2000/svg">
<g clip-path="url(#clip0)">
<path fill-rule="evenodd" clip-rule="evenodd" d="M320.036 17.0573H348.939V0.44581H358.019V44H348.939V26.1674H320.036V44H310.956V0.44581H320.036V17.0573ZM294.437 15.9524C294.437 14.5956 294.302 11.2229 293.22 10.1956C292.08 9.11013 288.564 8.97444 287.096 8.97444H270.306C268.568 8.97444 265.496 9.14889 264.085 10.37C262.81 11.4749 262.656 14.4018 262.656 15.9524V28.2414C262.656 29.6564 262.791 32.6802 263.969 33.7075C265.283 34.8511 268.664 34.9868 270.306 34.9868H287.096C288.448 34.9868 292.215 34.8705 293.297 33.8625C294.302 32.9128 294.437 29.5013 294.437 28.2414V15.9524ZM303.518 28.2608C303.518 32.4863 302.938 37.9136 299.557 40.8793C296.466 43.6123 291.095 44 287.154 44H270.384C266.133 44 260.917 43.4185 257.633 40.4335C254.329 37.4291 253.595 32.5057 253.595 28.2608V16.3013C253.595 12.0176 254.309 7.0555 257.459 3.89603C260.704 0.639643 266.037 0.0193787 270.384 0.0193787H287.154C291.153 0.0193787 296.099 0.542727 299.229 3.31453C302.764 6.474 303.498 11.8044 303.498 16.3013V28.2608H303.518ZM209.719 16.2819H212.868L238.931 0.44581H255.449L222.354 20.7013L253.923 44H238.486L212.926 25.2758H209.738V44H200.658V0.44581H209.738V16.2819H209.719ZM167.678 33.0678L146.542 0.387661H157.207L172.895 25.0819L187.424 0.387661H198.127L179.348 31.6722C177.57 34.6573 174.788 39.2123 172.045 41.4026C169.572 43.3991 166.345 43.9806 163.235 43.9806H159.371V34.9868H163.293C163.969 34.9868 165.727 34.9286 166.307 34.5603C166.751 34.3084 167.234 33.6881 167.678 33.0678ZM127.222 9.43964V44H118.142V9.43964H99.5368V0.44581H145.924V9.43964H127.222ZM68.1417 33.0678L46.9863 0.387661H57.6509L73.3388 25.0819L87.8868 0.387661H98.6094L79.8303 31.6722C78.0336 34.6573 75.2708 39.2123 72.5274 41.4026C70.0544 43.3991 66.828 43.9806 63.7174 43.9806H59.8534V34.9868H63.7754C64.4323 34.9868 66.2097 34.9286 66.7893 34.5603C67.195 34.3084 67.6974 33.6881 68.1417 33.0678ZM27.6663 9.43964V44H18.5859V9.43964H0V0.44581H46.3874V9.43964H27.6663Z" fill="#FA3134"/>
<path d="M313.641 41.422V2.94626H317.621V19.6159H351.624V2.94626H355.604V41.4414H351.624V23.6088H317.621V41.4414H313.641V41.422ZM301.18 28.2608C301.18 33.5718 300.156 37.1383 298.089 38.941C296.215 40.6079 292.64 41.422 287.385 41.422H270.616C265.399 41.422 261.709 40.4529 259.584 38.5145C257.459 36.5762 256.377 33.1454 256.377 28.2414V16.2819C256.377 11.3004 257.42 7.77269 259.487 5.6793C261.574 3.58591 265.264 2.55859 270.616 2.55859H287.385C292.312 2.55859 295.77 3.45022 297.76 5.2141C300.04 7.24934 301.18 10.9322 301.18 16.2819V28.2608ZM297.2 15.9524C297.2 12.1533 296.524 9.6141 295.191 8.33481C293.857 7.05551 291.23 6.41586 287.327 6.41586H270.558C266.848 6.41586 264.201 7.09428 262.656 8.43172C261.11 9.78855 260.337 12.289 260.337 15.933V28.222C260.337 31.8855 261.071 34.3471 262.54 35.6071C264.008 36.8863 266.674 37.5066 270.538 37.5066H287.308C291.327 37.5066 293.973 36.9057 295.249 35.6846C296.543 34.4634 297.181 31.9824 297.181 28.2026V15.9524H297.2ZM202.918 41.422V2.94626H206.898V18.8405H213.293L239.336 2.94626H246.079L217.485 20.5075L245.867 41.4414H239.027L213.467 22.7172H206.898V41.4414H202.918V41.422ZM188.679 2.94626H193.432L176.971 30.3542C174.17 35.0449 171.948 38.0687 170.267 39.4062C168.587 40.763 166.191 41.422 163.061 41.422H161.728V37.5454H163.1C165.167 37.5454 166.616 37.274 167.485 36.7119C168.355 36.1498 169.359 34.948 170.499 33.0485L151.025 2.94626H155.603L172.779 29.9665L188.679 2.94626ZM101.952 2.94626H143.239V6.82291H124.518V41.4414H120.557V6.82291H101.952V2.94626ZM89.2585 2.94626H94.0112L77.5699 30.3542C74.7685 35.0449 72.5467 38.0687 70.8658 39.4062C69.185 40.763 66.7893 41.422 63.6595 41.422H62.3264V37.5454H63.7174C65.7847 37.5454 67.2337 37.274 68.1031 36.7119C68.9725 36.1498 69.9771 34.948 71.117 33.0485L51.6231 2.94626H56.2019L73.3774 29.9665L89.2585 2.94626ZM2.55025 2.94626H43.8371V6.82291H25.116V41.4414H21.1361V6.82291H2.55025V2.94626Z" fill="#FA3134"/>
</g>
<defs>
<clipPath id="clip0">
<rect width="358" height="44" fill="white"/>
</clipPath>
</defs>
</svg>
